<svg id="visual" viewBox="0 0 2000 1020" width="2000" height="1020" xmlns="http://www.w3.org/2000/svg" xmlns:xlink="http://www.w3.org/1999/xlink" version="1.1"><rect x="0" y="0" width="2000" height="1020" fill="#FFFFFF"></rect><defs><linearGradient id="grad1_0" x1="49%" y1="0%" x2="100%" y2="100%"><stop offset="10.784313725490199%" stop-color="#ffffff" stop-opacity="1"></stop><stop offset="89.2156862745098%" stop-color="#ffffff" stop-opacity="1"></stop></linearGradient></defs><defs><linearGradient id="grad2_0" x1="0%" y1="0%" x2="51%" y2="100%"><stop offset="10.784313725490199%" stop-color="#ffffff" stop-opacity="1"></stop><stop offset="89.2156862745098%" stop-color="#ffffff" stop-opacity="1"></stop></linearGradient></defs><g transform="translate(2000, 0)"><path d="M0 612C-39.3 544.8 -78.6 477.6 -120.4 449.2C-162.1 420.7 -206.2 431.1 -242 419.2C-277.8 407.3 -305.2 373.1 -352.8 352.8C-400.4 332.6 -468.2 326.2 -512.7 296C-557.2 265.8 -578.5 211.7 -591.1 158.4C-603.8 105.1 -607.9 52.5 -612 0L0 0Z" fill="#6600FF"></path></g><g transform="translate(0, 1020)"><path d="M0 -612C54.6 -598.9 109.1 -585.9 146.8 -547.7C184.4 -509.5 205.1 -446.1 235 -407C264.9 -368 303.9 -353.2 326 -326C348.1 -298.7 353.4 -258.9 403.6 -233C453.8 -207.1 548.9 -194.9 591.1 -158.4C633.4 -121.9 622.7 -60.9 612 0L0 0Z" fill="#6600FF"></path></g></svg>