<svg id="visual" viewBox="0 0 2000 1020" width="2000" height="1020" xmlns="http://www.w3.org/2000/svg" xmlns:xlink="http://www.w3.org/1999/xlink" version="1.1"><rect x="0" y="0" width="2000" height="1020" fill="#FFFFFF"></rect><defs><linearGradient id="grad1_0" x1="49%" y1="100%" x2="100%" y2="0%"><stop offset="10.784313725490199%" stop-color="#ffffff" stop-opacity="1"></stop><stop offset="89.2156862745098%" stop-color="#ffffff" stop-opacity="1"></stop></linearGradient></defs><defs><linearGradient id="grad2_0" x1="0%" y1="100%" x2="51%" y2="0%"><stop offset="10.784313725490199%" stop-color="#ffffff" stop-opacity="1"></stop><stop offset="89.2156862745098%" stop-color="#ffffff" stop-opacity="1"></stop></linearGradient></defs><g transform="translate(2000, 1020)"><path d="M-612 0C-544.8 -39.3 -477.6 -78.6 -449.2 -120.4C-420.7 -162.1 -431.1 -206.2 -419.2 -242C-407.3 -277.8 -373.1 -305.2 -352.8 -352.8C-332.6 -400.4 -326.2 -468.2 -296 -512.7C-265.8 -557.2 -211.7 -578.5 -158.4 -591.1C-105.1 -603.8 -52.5 -607.9 0 -612L0 0Z" fill="#6600FF"></path></g><g transform="translate(0, 0)"><path d="M612 0C598.9 54.6 585.9 109.1 547.7 146.8C509.5 184.4 446.1 205.1 407 235C368 264.9 353.2 303.9 326 326C298.7 348.1 258.9 353.4 233 403.6C207.1 453.8 194.9 548.9 158.4 591.1C121.9 633.4 60.9 622.7 0 612L0 0Z" fill="#6600FF"></path></g></svg>