<svg id="visual" viewBox="0 0 960 540" width="960" height="540" xmlns="http://www.w3.org/2000/svg" xmlns:xlink="http://www.w3.org/1999/xlink" version="1.1"><rect x="0" y="0" width="960" height="540" fill="#FFFFFF"></rect><defs><linearGradient id="grad1_0" x1="43.8%" y1="0%" x2="100%" y2="100%"><stop offset="14.444444444444446%" stop-color="#ffffff" stop-opacity="1"></stop><stop offset="85.55555555555554%" stop-color="#ffffff" stop-opacity="1"></stop></linearGradient></defs><defs><linearGradient id="grad2_0" x1="0%" y1="0%" x2="56.3%" y2="100%"><stop offset="14.444444444444446%" stop-color="#ffffff" stop-opacity="1"></stop><stop offset="85.55555555555554%" stop-color="#ffffff" stop-opacity="1"></stop></linearGradient></defs><g transform="translate(960, 0)"><path d="M0 459C-29.6 433.1 -59.1 407.3 -90.6 396.8C-122 386.3 -155.3 391.3 -182.2 378.4C-209.1 365.5 -229.6 334.8 -246.9 309.6C-264.2 284.4 -278.5 264.8 -314.3 250.6C-350.1 236.5 -407.5 227.8 -413.5 199.2C-419.6 170.5 -374.4 121.8 -373.4 85.2C-372.4 48.7 -415.7 24.3 -459 0L0 0Z" fill="#715DF2"></path></g><g transform="translate(0, 540)"><path d="M0 -459C31 -432.5 62 -406.1 88.6 -388C115.1 -370 137.3 -360.3 174.9 -363.1C212.4 -365.8 265.4 -380.9 286.2 -358.9C306.9 -336.8 295.5 -277.5 301.8 -240.7C308.1 -203.8 332.2 -189.5 349.6 -168.3C367 -147.2 377.7 -119.3 394.8 -90.1C412 -60.9 435.5 -30.5 459 0L0 0Z" fill="#715DF2"></path></g></svg>