<svg id="visual" viewBox="0 0 960 540" width="960" height="540" xmlns="http://www.w3.org/2000/svg" xmlns:xlink="http://www.w3.org/1999/xlink" version="1.1"><rect x="0" y="0" width="960" height="540" fill="#FFFFFF"></rect><defs><linearGradient id="grad1_0" x1="43.8%" y1="100%" x2="100%" y2="0%"><stop offset="14.444444444444446%" stop-color="#ffffff" stop-opacity="1"></stop><stop offset="85.55555555555554%" stop-color="#ffffff" stop-opacity="1"></stop></linearGradient></defs><defs><linearGradient id="grad2_0" x1="0%" y1="100%" x2="56.3%" y2="0%"><stop offset="14.444444444444446%" stop-color="#ffffff" stop-opacity="1"></stop><stop offset="85.55555555555554%" stop-color="#ffffff" stop-opacity="1"></stop></linearGradient></defs><g transform="translate(960, 540)"><path d="M-459 0C-433.1 -29.6 -407.3 -59.1 -396.8 -90.6C-386.3 -122 -391.3 -155.3 -378.4 -182.2C-365.5 -209.1 -334.8 -229.6 -309.6 -246.9C-284.4 -264.2 -264.8 -278.5 -250.6 -314.3C-236.5 -350.1 -227.8 -407.5 -199.2 -413.5C-170.5 -419.6 -121.8 -374.4 -85.2 -373.4C-48.7 -372.4 -24.3 -415.7 0 -459L0 0Z" fill="#715DF2"></path></g><g transform="translate(0, 0)"><path d="M459 0C432.5 31 406.1 62 388 88.6C370 115.1 360.3 137.3 363.1 174.9C365.8 212.4 380.9 265.4 358.9 286.2C336.8 306.9 277.5 295.5 240.7 301.8C203.8 308.1 189.5 332.2 168.3 349.6C147.2 367 119.3 377.7 90.1 394.8C60.9 412 30.5 435.5 0 459L0 0Z" fill="#715DF2"></path></g></svg>